<svg id="simplesvet" data-name="Logo SimplesVet"
    xmlns="http://www.w3.org/2000/svg" viewBox="0 0 415.9 88.15">
    <defs>
        <style>.cls-1{fill:#8ba3b0;}.cls-2{fill:#44bccb;}.cls-3{fill:#f7a42d;}.cls-4{fill:#ea515b;}.cls-5{fill:#8c4493;}.cls-6{fill:#008ece;}</style>
    </defs>
    <title>logo-positivo</title>
    <path class="cls-1" d="M47.7,63.86V24.15c0-.14,0-.27,0-.42A4.13,4.13,0,0,0,43.6,19.6h0a4.13,4.13,0,0,0-4.13,4.13V63.9s0,.07,0,.11a4.14,4.14,0,1,0,8.28,0s0-.07,0-.11Z"/>
    <path class="cls-1" d="M19.45,40.25a68.85,68.85,0,0,1-7.84-3.32,8.51,8.51,0,0,1-2.77-2.26A4.41,4.41,0,0,1,8,32a4.07,4.07,0,0,1,2.15-3.64c1.53-.95,3.89-1.43,7-1.43a37,37,0,0,1,10.5,2.21,3.66,3.66,0,0,0,.71.17,3.62,3.62,0,0,0,1.51.33,3.73,3.73,0,0,0,.73-7.38c-.16-.07-.31-.15-.47-.21a43.42,43.42,0,0,0-12.49-2.3c-4.67,0-8.54.86-11.5,2.54a12.07,12.07,0,0,0-5.77,13,9.94,9.94,0,0,0,1.1,2.86A13.09,13.09,0,0,0,5.7,42.38a48.63,48.63,0,0,0,9.12,4.2c4.36,1.69,7.31,3.15,8.77,4.36a5.25,5.25,0,0,1-.51,8.66c-1.82,1.08-4.48,1.62-7.92,1.62a28.6,28.6,0,0,1-7-.93c-1-.26-2-.55-2.93-.88h0A3.73,3.73,0,1,0,3,66.49a33.93,33.93,0,0,0,12,1.82c5.81,0,10.4-1.2,13.65-3.58a12.12,12.12,0,0,0,5-10.37,11.25,11.25,0,0,0-3-8C28.64,44.27,25,42.27,19.45,40.25Z"/>
    <path class="cls-1" d="M252,40.15a66.23,66.23,0,0,1-7.84-3.32,8.55,8.55,0,0,1-2.78-2.25,4.49,4.49,0,0,1-.79-2.7,4.07,4.07,0,0,1,2.15-3.65c1.53-.95,3.89-1.43,7-1.43A36.77,36.77,0,0,1,260.24,29a4.32,4.32,0,0,0,.71.17,3.62,3.62,0,0,0,1.51.33,3.72,3.72,0,0,0,.72-7.38,2.49,2.49,0,0,0-.47-.21,43.35,43.35,0,0,0-12.48-2.3c-4.67,0-8.54.85-11.51,2.54a12.08,12.08,0,0,0-5.77,13A10,10,0,0,0,234.06,38a13,13,0,0,0,4.18,4.25,49.78,49.78,0,0,0,9.13,4.2c4.36,1.68,7.3,3.15,8.76,4.35a5.24,5.24,0,0,1-.51,8.66c-1.81,1.08-4.47,1.63-7.91,1.63a29.09,29.09,0,0,1-7.05-.93c-1-.26-2-.56-2.93-.89h0a3.72,3.72,0,1,0-2.15,7.08,33.83,33.83,0,0,0,12,1.83c5.8,0,10.4-1.2,13.65-3.58a12.17,12.17,0,0,0,5-10.37,11.22,11.22,0,0,0-3-8C261.18,44.18,257.53,42.17,252,40.15Z"/>
    <path class="cls-1" d="M180.89,4.3s0-.06,0-.09a4.14,4.14,0,0,0-8.28,0V63.92a4.14,4.14,0,0,0,8.28,0S180.89,4.3,180.89,4.3Z"/>
    <path class="cls-1" d="M115,24.1c-2.67-2.76-6.13-4.5-11.43-4.5h-1.9c-.21,0-.42,0-.63,0a18.52,18.52,0,0,0-14.43,6.89,18.6,18.6,0,0,0-24.88-3.69,4.13,4.13,0,0,0-4-3.18l-.2,0-.2,0a3.75,3.75,0,0,0-3.74,3.74V64.25a3.75,3.75,0,0,0,2.3,3.45A4.07,4.07,0,0,0,60,67.43a3.73,3.73,0,0,0,1.79-3.18v-.09a.77.77,0,0,0,0-.15.59.59,0,0,0,0-.14V53.62l.06,0V38.13c0-.17,0-.32,0-.49a10.31,10.31,0,0,1,10.31-10.3c.32,0,.63,0,1,.05l.38.05.46.07.64.13.08,0a10.3,10.3,0,0,1,7.28,7.07,18.45,18.45,0,0,1,.43,2.89,1.76,1.76,0,0,0,.05.27V64.25a3.75,3.75,0,0,0,2.33,3.46,4.07,4.07,0,0,0,4.18-.3,3.73,3.73,0,0,0,1.69-2.55,4,4,0,0,0,.09-.85,2.48,2.48,0,0,0,0-.27V53.58l.06,0V39.32A18.11,18.11,0,0,1,92.44,32a10.27,10.27,0,0,1,5.85-4.27l.3-.08.83-.16.42-.06c.26,0,.53,0,.8-.05l.36,0a10.3,10.3,0,0,1,10.3,10.3v16h0V63.87s0,.09,0,.14,0,.1,0,.15v.09a3.74,3.74,0,0,0,1.8,3.18,4.07,4.07,0,0,0,4.17.27,3.76,3.76,0,0,0,2.29-3.45V36.88C119.57,30.93,117.63,26.85,115,24.1Z"/>
    <path class="cls-1" d="M166.43,36.87A20.52,20.52,0,0,0,146,19.65a20.87,20.87,0,0,0-12.39,4.07,4.13,4.13,0,0,0-8.26.09V83.44a4.14,4.14,0,0,0,8.28,0V64a20.71,20.71,0,0,0,32.69-12.78,54.49,54.49,0,0,0,.5-7.13A67.66,67.66,0,0,0,166.43,36.87Zm-8.61,14A12.14,12.14,0,0,1,133.93,49h-.05V39.17h0A12.14,12.14,0,0,1,158,37.73a13.51,13.51,0,0,1,.13,1.44h0a48.55,48.55,0,0,1,.21,5A39,39,0,0,1,157.82,50.91Z"/>
    <path class="cls-1" d="M228.38,39.17a20.42,20.42,0,0,0-20.62-19.52c-7.22,0-14.23,3.21-17.25,9.08a32.65,32.65,0,0,0-3.75,14.71,30.64,30.64,0,0,0,4.13,16c3,5.13,10.16,8.52,15.76,8.65,6.9.15,10.9,0,15.7-2.24a7.68,7.68,0,0,0,1.36-1.06,4.07,4.07,0,0,0,.92-3.2c-.31-2.26-2.27-3.9-4.46-3.25C214.66,60,214.66,60,208.22,60s-12.16-5.07-12.45-11.44c0-.19,0-.64,0-.69h28.51a4.13,4.13,0,0,0,4.14-4.13C228.41,43.65,228.38,39.17,228.38,39.17ZM207.76,27.61a12,12,0,0,1,12,12h-24A12,12,0,0,1,207.76,27.61Z"/>
    <path class="cls-1" d="M386.25,39.17a20.42,20.42,0,0,0-20.62-19.52c-7.22,0-14.23,3.21-17.25,9.08a32.65,32.65,0,0,0-3.75,14.71,30.64,30.64,0,0,0,4.13,16c3,5.13,10.16,8.52,15.76,8.65,6.9.15,10.9,0,15.7-2.24a7.68,7.68,0,0,0,1.36-1.06,4.07,4.07,0,0,0,.92-3.2c-.31-2.26-2.27-3.9-4.46-3.25-5.51,1.64-5.51,1.64-12,1.64s-12.16-5.07-12.45-11.44c0-.19,0-.64,0-.69h28.51a4.13,4.13,0,0,0,4.14-4.13C386.28,43.65,386.25,39.17,386.25,39.17ZM365.63,27.61a12,12,0,0,1,12,12h-24A12,12,0,0,1,365.63,27.61Z"/>
    <path class="cls-2" d="M302.52,47.55l4.78-8.27L297.15,21.69A4.14,4.14,0,1,0,290,25.82Z"/>
    <path class="cls-3" d="M302.52,47.55,287.6,21.7a4.14,4.14,0,0,0-7.17,4.13l17.32,30Z"/>
    <path class="cls-4" d="M297.75,55.82l-19.62-34A4.25,4.25,0,0,0,272.76,20a4.13,4.13,0,0,0-1.88,5.83L289.4,57.91a4.12,4.12,0,0,0,7.14,0Z"/>
    <path class="cls-5" d="M332.66,20.18A4.15,4.15,0,0,0,327,21.7L301.36,66.11h0a4.13,4.13,0,0,1-3.6,2.14h9.57a4.53,4.53,0,0,0,.75-.08l.12,0a4.06,4.06,0,0,0,1.39-.58l.06,0a4.11,4.11,0,0,0,1-1l.09-.14a.78.78,0,0,0,.1-.15l23.3-40.35A4.15,4.15,0,0,0,332.66,20.18Z"/>
    <path class="cls-6" d="M342.21,20.18a4.14,4.14,0,0,0-5.65,1.52L310.92,66.11h0a4.1,4.1,0,0,1-3.6,2.14H317a3.89,3.89,0,0,0,2.77-1.16,4.08,4.08,0,0,0,1-1.42l23-39.83A4.13,4.13,0,0,0,342.21,20.18Z"/>
    <path class="cls-1" d="M411.42,60c-.06,0-1.81.06-3.86.06-4.63,0-4.94-3-4.94-6.78,0,0,0-23.39,0-23.56a2.28,2.28,0,0,1,2.28-2.28l7,0a3.91,3.91,0,0,0,0-7.82h-7a2.28,2.28,0,0,1-2.28-2.28c0-.05.08-4.49.08-4.7a4.14,4.14,0,0,0-8.28,0v4.7h0a2.28,2.28,0,0,1-2.09,2.26l-2.15,0a3.89,3.89,0,0,0,0,7.78h2a2.28,2.28,0,0,1,2.28,2.28c0,.27,0,23.85,0,23.85,0,9.67,4.55,14.69,13.74,14.69a29.24,29.24,0,0,0,4-.29h.09a4.14,4.14,0,0,0,3.52-4.67A3.9,3.9,0,0,0,411.42,60Z"/>
</svg>